<svg width="36" height="37" viewBox="0 0 36 37" fill="none" xmlns="http://www.w3.org/2000/svg">
<path d="M34.125 18.3604C34.125 27.2554 26.895 34.4854 18 34.4854C9.105 34.4854 1.875 27.2554 1.875 18.3604C1.875 9.46535 9.105 2.23535 18 2.23535C26.895 2.23535 34.125 9.46535 34.125 18.3604ZM4.125 18.3604C4.125 26.0104 10.35 32.2354 18 32.2354C25.65 32.2354 31.875 26.0104 31.875 18.3604C31.875 10.7104 25.65 4.48535 18 4.48535C10.35 4.48535 4.125 10.7104 4.125 18.3604Z" fill="#F9F9F9"/>
<path d="M22.875 18.3604C22.875 18.9754 22.365 19.4854 21.75 19.4854H12.75C12.135 19.4854 11.625 18.9754 11.625 18.3604C11.625 17.7454 12.135 17.2354 12.75 17.2354H21.75C22.365 17.2354 22.875 17.7454 22.875 18.3604Z" fill="#F9F9F9"/>
<path d="M24.3749 18.3602C24.3749 18.6452 24.2699 18.9302 24.0449 19.1552L19.5449 23.6552C19.1099 24.0902 18.3899 24.0902 17.9549 23.6552C17.5199 23.2202 17.5199 22.5002 17.9549 22.0652L21.6599 18.3602L17.9549 14.6552C17.5199 14.2202 17.5199 13.5002 17.9549 13.0652C18.3899 12.6302 19.1099 12.6302 19.5449 13.0652L24.0449 17.5652C24.2699 17.7902 24.3749 18.0752 24.3749 18.3602Z" fill="#F9F9F9"/>
</svg>
