<svg width="37" height="37" viewBox="0 0 37 37" fill="none" xmlns="http://www.w3.org/2000/svg">
<path d="M31.85 19.85C30.95 19.85 30.35 19.25 30.35 18.35C30.35 17.45 30.95 16.85 31.85 16.85H33.2C32.45 9.8 26.9 4.1 19.85 3.5V4.85C19.85 5.75 19.25 6.35 18.35 6.35C17.45 6.35 16.85 5.75 16.85 4.85V3.5C9.79999 4.25 4.1 9.8 3.5 16.85H4.84999C5.74999 16.85 6.34999 17.45 6.34999 18.35C6.34999 19.25 5.74999 19.85 4.84999 19.85H3.5C4.25 26.9 9.79999 32.6 16.85 33.2V31.85C16.85 30.95 17.45 30.35 18.35 30.35C19.25 30.35 19.85 30.95 19.85 31.85V33.2C26.9 32.45 32.6 26.9 33.2 19.85H31.85Z" fill="white"/>
<path d="M25.8503 16.8516H20.9003C20.6003 16.4016 20.3003 16.1016 19.8503 15.8016V9.35156C19.8503 8.45156 19.2503 7.85156 18.3503 7.85156C17.4503 7.85156 16.8503 8.45156 16.8503 9.35156V15.8016C16.4003 16.1016 16.1003 16.4016 15.8003 16.8516H15.3503C14.4503 16.8516 13.8503 17.4516 13.8503 18.3516C13.8503 19.2516 14.4503 19.8516 15.3503 19.8516H15.8003C16.1003 20.3016 16.4003 20.6016 16.8503 20.9016V21.3516C16.8503 22.2516 17.4503 22.8516 18.3503 22.8516C19.2503 22.8516 19.8503 22.2516 19.8503 21.3516V20.9016C20.3003 20.6016 20.6003 20.3016 20.9003 19.8516H25.8503C26.7503 19.8516 27.3503 19.2516 27.3503 18.3516C27.3503 17.4516 26.7503 16.8516 25.8503 16.8516Z" fill="#8B8B8B"/>
</svg>
