<svg width="37" height="37" viewBox="0 0 37 37" fill="none" xmlns="http://www.w3.org/2000/svg">
<path d="M13.55 6.7984L6.5 9.94855V28.8483L13.55 25.6985V28.9985L5.15 32.7485C4.4 33.0485 3.5 32.5985 3.5 31.6985V9.49847C3.5 8.59847 3.95 7.8484 4.85 7.5484L13.55 3.64844V6.7984Z" fill="white"/>
<path d="M23.45 30.1989L30.4999 27.0487V8.14878L23.45 11.2987V7.99882L31.8499 4.24881C32.5999 3.94881 33.4999 4.39874 33.4999 5.29874V27.4988C33.4999 28.3988 33.0499 29.1489 32.1499 29.4489L23.45 33.3487V30.1989Z" fill="white"/>
<path d="M23.45 11.2984L30.4999 8.14844V27.0484L23.45 30.1985V11.2984Z" fill="white"/>
<path d="M13.55 6.79993V3.5L23.6001 8V11.2999L13.55 6.79993ZM13.55 25.7001V29L23.6001 33.5V30.2001L13.55 25.7001Z" fill="white"/>
<path d="M13.55 25.697L6.5 28.8468V9.94702L13.55 6.79688V25.697Z" fill="white"/>
</svg>
